<mxfile host="app.diagrams.net" modified="2023-09-15T06:22:02.289Z" agent="Mozilla/5.0 (Windows NT 10.0; Win64; x64) AppleWebKit/537.36 (KHTML, like Gecko) Chrome/116.0.0.0 Safari/537.36" etag="aRVIBTU6zHUDGCcRCuDF" version="21.6.5" type="google">
  <diagram id="od8Rnb8N7IRgNO0WA-l_" name="ページ1">
    <mxGraphModel grid="1" page="1" gridSize="10" guides="1" tooltips="1" connect="1" arrows="1" fold="1" pageScale="1" pageWidth="827" pageHeight="1169" math="0" shadow="0">
      <root>
        <mxCell id="0" />
        <mxCell id="1" parent="0" />
        <mxCell id="XumjTPw2hBYQ-sRrh7FU-17" value="EKS Cluster" style="fillColor=none;strokeColor=#D05C17;dashed=1;verticalAlign=top;fontStyle=0;fontColor=#D05C17;fontSize=16;" vertex="1" parent="1">
          <mxGeometry x="-440" y="240" width="840" height="640" as="geometry" />
        </mxCell>
        <mxCell id="tqQFtVf9cBMd6XpxgD0x-8" style="edgeStyle=orthogonalEdgeStyle;rounded=0;orthogonalLoop=1;jettySize=auto;html=1;" edge="1" parent="1" source="tqQFtVf9cBMd6XpxgD0x-2" target="25kCVbxW3HgF8WLqXU-x-1">
          <mxGeometry relative="1" as="geometry">
            <Array as="points">
              <mxPoint x="20" y="480" />
              <mxPoint x="-100" y="480" />
            </Array>
            <mxPoint x="-100" y="580" as="targetPoint" />
          </mxGeometry>
        </mxCell>
        <mxCell id="tqQFtVf9cBMd6XpxgD0x-2" value="User applications" style="fillColor=none;strokeColor=#5A6C86;dashed=1;verticalAlign=top;fontStyle=0;fontColor=#5A6C86;fontFamily=Helvetica;fontSize=16;" vertex="1" parent="1">
          <mxGeometry x="-320" y="320" width="680" height="120" as="geometry" />
        </mxCell>
        <mxCell id="XumjTPw2hBYQ-sRrh7FU-14" value="AWS Cloud" style="points=[[0,0],[0.25,0],[0.5,0],[0.75,0],[1,0],[1,0.25],[1,0.5],[1,0.75],[1,1],[0.75,1],[0.5,1],[0.25,1],[0,1],[0,0.75],[0,0.5],[0,0.25]];outlineConnect=0;gradientColor=none;html=1;whiteSpace=wrap;fontSize=16;fontStyle=0;container=0;pointerEvents=0;collapsible=0;recursiveResize=0;shape=mxgraph.aws4.group;grIcon=mxgraph.aws4.group_aws_cloud;strokeColor=#232F3E;fillColor=none;verticalAlign=top;align=left;spacingLeft=30;fontColor=#232F3E;dashed=0;movable=1;resizable=1;rotatable=1;deletable=1;editable=1;locked=0;connectable=1;" vertex="1" parent="1">
          <mxGeometry x="-680" y="80" width="1480" height="1000" as="geometry" />
        </mxCell>
        <mxCell id="XumjTPw2hBYQ-sRrh7FU-15" value="VPC" style="points=[[0,0],[0.25,0],[0.5,0],[0.75,0],[1,0],[1,0.25],[1,0.5],[1,0.75],[1,1],[0.75,1],[0.5,1],[0.25,1],[0,1],[0,0.75],[0,0.5],[0,0.25]];outlineConnect=0;gradientColor=none;html=1;whiteSpace=wrap;fontSize=16;fontStyle=0;container=0;pointerEvents=0;collapsible=0;recursiveResize=0;shape=mxgraph.aws4.group;grIcon=mxgraph.aws4.group_vpc;strokeColor=#248814;fillColor=none;verticalAlign=top;align=left;spacingLeft=30;fontColor=#AAB7B8;dashed=0;" vertex="1" parent="1">
          <mxGeometry x="-640" y="120" width="1080" height="920" as="geometry" />
        </mxCell>
        <mxCell id="XumjTPw2hBYQ-sRrh7FU-35" style="edgeStyle=orthogonalEdgeStyle;rounded=0;orthogonalLoop=1;jettySize=auto;html=1;entryX=0;entryY=0.5;entryDx=0;entryDy=0;entryPerimeter=0;fontFamily=Helvetica;fontSize=12;fontColor=#D05C17;" edge="1" parent="1" source="XumjTPw2hBYQ-sRrh7FU-34" target="XumjTPw2hBYQ-sRrh7FU-30">
          <mxGeometry relative="1" as="geometry" />
        </mxCell>
        <mxCell id="eG7ZQN_vo8qLT-gt9y6S-61" style="edgeStyle=orthogonalEdgeStyle;rounded=0;orthogonalLoop=1;jettySize=auto;html=1;entryX=0;entryY=0.5;entryDx=0;entryDy=0;entryPerimeter=0;" edge="1" parent="1" source="XumjTPw2hBYQ-sRrh7FU-34" target="XumjTPw2hBYQ-sRrh7FU-16">
          <mxGeometry relative="1" as="geometry">
            <Array as="points">
              <mxPoint x="-720" y="580" />
              <mxPoint x="-720" y="280" />
            </Array>
          </mxGeometry>
        </mxCell>
        <mxCell id="XumjTPw2hBYQ-sRrh7FU-36" value="Managed databases" style="fillColor=none;strokeColor=#5A6C86;dashed=1;verticalAlign=top;fontStyle=0;fontColor=#5A6C86;fontFamily=Helvetica;fontSize=16;" vertex="1" parent="1">
          <mxGeometry x="600" y="320" width="160" height="560" as="geometry" />
        </mxCell>
        <mxCell id="XumjTPw2hBYQ-sRrh7FU-37" value="" style="sketch=0;points=[[0,0,0],[0.25,0,0],[0.5,0,0],[0.75,0,0],[1,0,0],[0,1,0],[0.25,1,0],[0.5,1,0],[0.75,1,0],[1,1,0],[0,0.25,0],[0,0.5,0],[0,0.75,0],[1,0.25,0],[1,0.5,0],[1,0.75,0]];outlineConnect=0;fontColor=#232F3E;gradientColor=#4D72F3;gradientDirection=north;fillColor=#3334B9;strokeColor=#ffffff;dashed=0;verticalLabelPosition=bottom;verticalAlign=top;align=center;html=1;fontSize=12;fontStyle=0;aspect=fixed;shape=mxgraph.aws4.resourceIcon;resIcon=mxgraph.aws4.dynamodb;fontFamily=Helvetica;" vertex="1" parent="1">
          <mxGeometry x="640" y="400" width="80" height="80" as="geometry" />
        </mxCell>
        <mxCell id="XumjTPw2hBYQ-sRrh7FU-38" value="" style="sketch=0;points=[[0,0,0],[0.25,0,0],[0.5,0,0],[0.75,0,0],[1,0,0],[0,1,0],[0.25,1,0],[0.5,1,0],[0.75,1,0],[1,1,0],[0,0.25,0],[0,0.5,0],[0,0.75,0],[1,0.25,0],[1,0.5,0],[1,0.75,0]];outlineConnect=0;fontColor=#232F3E;gradientColor=#4D72F3;gradientDirection=north;fillColor=#3334B9;strokeColor=#ffffff;dashed=0;verticalLabelPosition=bottom;verticalAlign=top;align=center;html=1;fontSize=12;fontStyle=0;aspect=fixed;shape=mxgraph.aws4.resourceIcon;resIcon=mxgraph.aws4.rds;fontFamily=Helvetica;" vertex="1" parent="1">
          <mxGeometry x="640" y="560" width="80" height="80" as="geometry" />
        </mxCell>
        <mxCell id="XumjTPw2hBYQ-sRrh7FU-39" value="" style="sketch=0;points=[[0,0,0],[0.25,0,0],[0.5,0,0],[0.75,0,0],[1,0,0],[0,1,0],[0.25,1,0],[0.5,1,0],[0.75,1,0],[1,1,0],[0,0.25,0],[0,0.5,0],[0,0.75,0],[1,0.25,0],[1,0.5,0],[1,0.75,0]];outlineConnect=0;fontColor=#232F3E;gradientColor=#4D72F3;gradientDirection=north;fillColor=#3334B9;strokeColor=#ffffff;dashed=0;verticalLabelPosition=bottom;verticalAlign=top;align=center;html=1;fontSize=12;fontStyle=0;aspect=fixed;shape=mxgraph.aws4.resourceIcon;resIcon=mxgraph.aws4.aurora;fontFamily=Helvetica;" vertex="1" parent="1">
          <mxGeometry x="640" y="720" width="80" height="80" as="geometry" />
        </mxCell>
        <mxCell id="eG7ZQN_vo8qLT-gt9y6S-23" style="edgeStyle=orthogonalEdgeStyle;rounded=0;orthogonalLoop=1;jettySize=auto;html=1;entryX=0;entryY=0.5;entryDx=0;entryDy=0;entryPerimeter=0;" edge="1" parent="1" source="wCM3qjM0v2rsUfWR87Rg-18" target="XumjTPw2hBYQ-sRrh7FU-37">
          <mxGeometry relative="1" as="geometry">
            <Array as="points">
              <mxPoint x="560" y="600" />
              <mxPoint x="560" y="440" />
            </Array>
            <mxPoint x="320" y="600.0555555555554" as="sourcePoint" />
          </mxGeometry>
        </mxCell>
        <mxCell id="eG7ZQN_vo8qLT-gt9y6S-40" style="edgeStyle=orthogonalEdgeStyle;rounded=0;orthogonalLoop=1;jettySize=auto;html=1;" edge="1" parent="1" source="wCM3qjM0v2rsUfWR87Rg-18" target="XumjTPw2hBYQ-sRrh7FU-39">
          <mxGeometry relative="1" as="geometry">
            <Array as="points">
              <mxPoint x="560" y="600" />
              <mxPoint x="560" y="760" />
            </Array>
            <mxPoint x="320" y="600.0555555555554" as="sourcePoint" />
          </mxGeometry>
        </mxCell>
        <mxCell id="eG7ZQN_vo8qLT-gt9y6S-41" style="edgeStyle=orthogonalEdgeStyle;rounded=0;orthogonalLoop=1;jettySize=auto;html=1;" edge="1" parent="1" source="wCM3qjM0v2rsUfWR87Rg-18" target="XumjTPw2hBYQ-sRrh7FU-38">
          <mxGeometry relative="1" as="geometry">
            <Array as="points" />
            <mxPoint x="320" y="600.0555555555554" as="sourcePoint" />
          </mxGeometry>
        </mxCell>
        <mxCell id="XumjTPw2hBYQ-sRrh7FU-16" value="" style="sketch=0;points=[[0,0,0],[0.25,0,0],[0.5,0,0],[0.75,0,0],[1,0,0],[0,1,0],[0.25,1,0],[0.5,1,0],[0.75,1,0],[1,1,0],[0,0.25,0],[0,0.5,0],[0,0.75,0],[1,0.25,0],[1,0.5,0],[1,0.75,0]];outlineConnect=0;fontColor=#232F3E;gradientColor=#F78E04;gradientDirection=north;fillColor=#D05C17;strokeColor=#ffffff;dashed=0;verticalLabelPosition=bottom;verticalAlign=top;align=center;html=1;fontSize=12;fontStyle=0;aspect=fixed;shape=mxgraph.aws4.resourceIcon;resIcon=mxgraph.aws4.eks;" vertex="1" parent="1">
          <mxGeometry x="-440" y="240" width="80" height="80" as="geometry" />
        </mxCell>
        <mxCell id="vq4LuXX9IaKjQ2Ny3iWy-1" style="edgeStyle=orthogonalEdgeStyle;rounded=0;orthogonalLoop=1;jettySize=auto;html=1;entryX=0.5;entryY=1;entryDx=0;entryDy=0;" edge="1" parent="1" source="XumjTPw2hBYQ-sRrh7FU-18" target="XumjTPw2hBYQ-sRrh7FU-22">
          <mxGeometry relative="1" as="geometry" />
        </mxCell>
        <mxCell id="XumjTPw2hBYQ-sRrh7FU-18" value="Monitoring components" style="fillColor=none;strokeColor=#5A6C86;dashed=1;verticalAlign=top;fontStyle=0;fontColor=#5A6C86;fontFamily=Helvetica;fontSize=16;" vertex="1" parent="1">
          <mxGeometry x="-320" y="720" width="680" height="120" as="geometry" />
        </mxCell>
        <mxCell id="XumjTPw2hBYQ-sRrh7FU-22" value="ScalarDB Cluster componets" style="fillColor=none;strokeColor=#5A6C86;dashed=1;verticalAlign=top;fontStyle=0;fontColor=#5A6C86;fontFamily=Helvetica;fontSize=16;" vertex="1" parent="1">
          <mxGeometry x="-320" y="520" width="680" height="120" as="geometry" />
        </mxCell>
        <mxCell id="XumjTPw2hBYQ-sRrh7FU-32" value="" style="edgeStyle=orthogonalEdgeStyle;rounded=0;orthogonalLoop=1;jettySize=auto;html=1;fontFamily=Helvetica;fontSize=12;fontColor=#D05C17;exitX=1;exitY=0.5;exitDx=0;exitDy=0;exitPerimeter=0;entryX=0;entryY=0.5;entryDx=0;entryDy=0;" edge="1" parent="1" source="XumjTPw2hBYQ-sRrh7FU-30" target="XumjTPw2hBYQ-sRrh7FU-18">
          <mxGeometry relative="1" as="geometry">
            <Array as="points">
              <mxPoint x="-480" y="580" />
              <mxPoint x="-480" y="780" />
            </Array>
          </mxGeometry>
        </mxCell>
        <mxCell id="XumjTPw2hBYQ-sRrh7FU-33" value="" style="edgeStyle=orthogonalEdgeStyle;rounded=0;orthogonalLoop=1;jettySize=auto;html=1;fontFamily=Helvetica;fontSize=12;fontColor=#D05C17;entryX=0;entryY=0.5;entryDx=0;entryDy=0;exitX=1;exitY=0.5;exitDx=0;exitDy=0;exitPerimeter=0;" edge="1" parent="1" source="XumjTPw2hBYQ-sRrh7FU-30" target="XumjTPw2hBYQ-sRrh7FU-22">
          <mxGeometry relative="1" as="geometry">
            <mxPoint x="-520" y="400" as="sourcePoint" />
            <Array as="points">
              <mxPoint x="-510" y="580" />
              <mxPoint x="-510" y="580" />
            </Array>
          </mxGeometry>
        </mxCell>
        <mxCell id="tqQFtVf9cBMd6XpxgD0x-12" style="edgeStyle=orthogonalEdgeStyle;rounded=0;orthogonalLoop=1;jettySize=auto;html=1;" edge="1" parent="1" source="XumjTPw2hBYQ-sRrh7FU-30" target="tqQFtVf9cBMd6XpxgD0x-2">
          <mxGeometry relative="1" as="geometry">
            <Array as="points">
              <mxPoint x="-480" y="580" />
              <mxPoint x="-480" y="380" />
            </Array>
          </mxGeometry>
        </mxCell>
        <mxCell id="XumjTPw2hBYQ-sRrh7FU-30" value="" style="sketch=0;points=[[0,0,0],[0.25,0,0],[0.5,0,0],[0.75,0,0],[1,0,0],[0,1,0],[0.25,1,0],[0.5,1,0],[0.75,1,0],[1,1,0],[0,0.25,0],[0,0.5,0],[0,0.75,0],[1,0.25,0],[1,0.5,0],[1,0.75,0]];outlineConnect=0;fontColor=#232F3E;gradientColor=#F78E04;gradientDirection=north;fillColor=#D05C17;strokeColor=#ffffff;dashed=0;verticalLabelPosition=bottom;verticalAlign=top;align=center;html=1;fontSize=12;fontStyle=0;aspect=fixed;shape=mxgraph.aws4.resourceIcon;resIcon=mxgraph.aws4.ec2;fontFamily=Helvetica;" vertex="1" parent="1">
          <mxGeometry x="-600" y="540" width="80" height="80" as="geometry" />
        </mxCell>
        <mxCell id="eG7ZQN_vo8qLT-gt9y6S-24" style="edgeStyle=orthogonalEdgeStyle;rounded=0;orthogonalLoop=1;jettySize=auto;html=1;" edge="1" parent="1" source="25kCVbxW3HgF8WLqXU-x-1" target="wCM3qjM0v2rsUfWR87Rg-18">
          <mxGeometry relative="1" as="geometry">
            <mxPoint x="-80" y="600" as="sourcePoint" />
            <mxPoint x="280" y="600.0555555555554" as="targetPoint" />
          </mxGeometry>
        </mxCell>
        <mxCell id="eG7ZQN_vo8qLT-gt9y6S-35" value="Monitoring" style="text;html=1;align=center;verticalAlign=middle;resizable=0;points=[];autosize=1;strokeColor=none;fillColor=none;fontSize=16;" vertex="1" parent="1">
          <mxGeometry x="20" y="690" width="100" height="30" as="geometry" />
        </mxCell>
        <mxCell id="eG7ZQN_vo8qLT-gt9y6S-36" value="Bastion server" style="text;html=1;align=center;verticalAlign=middle;resizable=0;points=[];autosize=1;strokeColor=none;fillColor=none;fontSize=16;" vertex="1" parent="1">
          <mxGeometry x="-625" y="619.9999999999999" width="130" height="30" as="geometry" />
        </mxCell>
        <mxCell id="eG7ZQN_vo8qLT-gt9y6S-45" style="edgeStyle=orthogonalEdgeStyle;rounded=0;orthogonalLoop=1;jettySize=auto;html=1;entryX=0.5;entryY=1;entryDx=0;entryDy=0;entryPerimeter=0;" edge="1" parent="1" source="eG7ZQN_vo8qLT-gt9y6S-44" target="wCM3qjM0v2rsUfWR87Rg-33">
          <mxGeometry relative="1" as="geometry">
            <mxPoint x="300.02857142857147" y="812.8413535886473" as="targetPoint" />
          </mxGeometry>
        </mxCell>
        <mxCell id="eG7ZQN_vo8qLT-gt9y6S-50" style="edgeStyle=orthogonalEdgeStyle;rounded=0;orthogonalLoop=1;jettySize=auto;html=1;entryX=0.5;entryY=1;entryDx=0;entryDy=0;entryPerimeter=0;" edge="1" parent="1" source="eG7ZQN_vo8qLT-gt9y6S-44" target="wCM3qjM0v2rsUfWR87Rg-32">
          <mxGeometry relative="1" as="geometry">
            <mxPoint x="220.02857142857147" y="812.8413535886473" as="targetPoint" />
          </mxGeometry>
        </mxCell>
        <mxCell id="eG7ZQN_vo8qLT-gt9y6S-44" value="" style="sketch=0;points=[[0,0,0],[0.25,0,0],[0.5,0,0],[0.75,0,0],[1,0,0],[0,1,0],[0.25,1,0],[0.5,1,0],[0.75,1,0],[1,1,0],[0,0.25,0],[0,0.5,0],[0,0.75,0],[1,0.25,0],[1,0.5,0],[1,0.75,0]];outlineConnect=0;fontColor=#232F3E;gradientColor=#F78E04;gradientDirection=north;fillColor=#D05C17;strokeColor=#ffffff;dashed=0;verticalLabelPosition=bottom;verticalAlign=top;align=center;html=1;fontSize=12;fontStyle=0;aspect=fixed;shape=mxgraph.aws4.resourceIcon;resIcon=mxgraph.aws4.elastic_load_balancing;" vertex="1" parent="1">
          <mxGeometry x="-440" y="920" width="80" height="80" as="geometry" />
        </mxCell>
        <mxCell id="eG7ZQN_vo8qLT-gt9y6S-49" value="Monitoring" style="text;html=1;align=center;verticalAlign=middle;resizable=0;points=[];autosize=1;strokeColor=none;fillColor=none;fontSize=16;" vertex="1" parent="1">
          <mxGeometry x="-540" y="960" width="100" height="30" as="geometry" />
        </mxCell>
        <mxCell id="tqQFtVf9cBMd6XpxgD0x-11" style="edgeStyle=orthogonalEdgeStyle;rounded=0;orthogonalLoop=1;jettySize=auto;html=1;entryX=0;entryY=0.5;entryDx=0;entryDy=0;entryPerimeter=0;" edge="1" parent="1" source="XumjTPw2hBYQ-sRrh7FU-34" target="eG7ZQN_vo8qLT-gt9y6S-44">
          <mxGeometry relative="1" as="geometry">
            <Array as="points">
              <mxPoint x="-720" y="580" />
              <mxPoint x="-720" y="960" />
            </Array>
          </mxGeometry>
        </mxCell>
        <mxCell id="eG7ZQN_vo8qLT-gt9y6S-51" value="Administrator" style="text;html=1;align=center;verticalAlign=middle;resizable=0;points=[];autosize=1;strokeColor=none;fillColor=none;fontSize=16;" vertex="1" parent="1">
          <mxGeometry x="-860" y="620" width="120" height="30" as="geometry" />
        </mxCell>
        <mxCell id="tqQFtVf9cBMd6XpxgD0x-10" style="edgeStyle=orthogonalEdgeStyle;rounded=0;orthogonalLoop=1;jettySize=auto;html=1;" edge="1" parent="1" source="eG7ZQN_vo8qLT-gt9y6S-53" target="XumjTPw2hBYQ-sRrh7FU-17">
          <mxGeometry relative="1" as="geometry" />
        </mxCell>
        <mxCell id="eG7ZQN_vo8qLT-gt9y6S-53" value="" style="sketch=0;points=[[0,0,0],[0.25,0,0],[0.5,0,0],[0.75,0,0],[1,0,0],[0,1,0],[0.25,1,0],[0.5,1,0],[0.75,1,0],[1,1,0],[0,0.25,0],[0,0.5,0],[0,0.75,0],[1,0.25,0],[1,0.5,0],[1,0.75,0]];outlineConnect=0;fontColor=#232F3E;gradientColor=#F78E04;gradientDirection=north;fillColor=#D05C17;strokeColor=#ffffff;dashed=0;verticalLabelPosition=bottom;verticalAlign=top;align=center;html=1;fontSize=12;fontStyle=0;aspect=fixed;shape=mxgraph.aws4.resourceIcon;resIcon=mxgraph.aws4.ecr;" vertex="1" parent="1">
          <mxGeometry x="640" y="120" width="80" height="80" as="geometry" />
        </mxCell>
        <mxCell id="eG7ZQN_vo8qLT-gt9y6S-55" value="AWS Marketplace&lt;br style=&quot;font-size: 16px;&quot;&gt;Container Registry" style="text;html=1;align=center;verticalAlign=middle;resizable=0;points=[];autosize=1;strokeColor=none;fillColor=none;fontSize=16;" vertex="1" parent="1">
          <mxGeometry x="600" y="200" width="160" height="50" as="geometry" />
        </mxCell>
        <mxCell id="eG7ZQN_vo8qLT-gt9y6S-57" value="Pull Scalar product images" style="text;html=1;align=center;verticalAlign=middle;resizable=0;points=[];autosize=1;strokeColor=none;fillColor=none;fontSize=16;" vertex="1" parent="1">
          <mxGeometry x="230" y="160" width="210" height="30" as="geometry" />
        </mxCell>
        <mxCell id="eG7ZQN_vo8qLT-gt9y6S-59" value="Create EKS cluster" style="text;html=1;align=center;verticalAlign=middle;resizable=0;points=[];autosize=1;strokeColor=none;fillColor=none;fontSize=16;" vertex="1" parent="1">
          <mxGeometry x="-600" y="280" width="160" height="30" as="geometry" />
        </mxCell>
        <mxCell id="eG7ZQN_vo8qLT-gt9y6S-69" value="DynamoDB" style="text;html=1;align=center;verticalAlign=middle;resizable=0;points=[];autosize=1;strokeColor=none;fillColor=none;fontSize=16;" vertex="1" parent="1">
          <mxGeometry x="625" y="480" width="110" height="30" as="geometry" />
        </mxCell>
        <mxCell id="eG7ZQN_vo8qLT-gt9y6S-70" value="Amazon RDS" style="text;html=1;align=center;verticalAlign=middle;resizable=0;points=[];autosize=1;strokeColor=none;fillColor=none;fontSize=16;" vertex="1" parent="1">
          <mxGeometry x="620" y="640" width="120" height="30" as="geometry" />
        </mxCell>
        <mxCell id="eG7ZQN_vo8qLT-gt9y6S-71" value="Amazon Aurora" style="text;html=1;align=center;verticalAlign=middle;resizable=0;points=[];autosize=1;strokeColor=none;fillColor=none;fontSize=16;" vertex="1" parent="1">
          <mxGeometry x="615" y="800" width="130" height="30" as="geometry" />
        </mxCell>
        <mxCell id="eG7ZQN_vo8qLT-gt9y6S-73" value="Client requests via Service resource" style="text;html=1;align=center;verticalAlign=middle;resizable=0;points=[];autosize=1;strokeColor=none;fillColor=none;fontSize=16;" vertex="1" parent="1">
          <mxGeometry x="-50" y="570" width="280" height="30" as="geometry" />
        </mxCell>
        <mxCell id="eG7ZQN_vo8qLT-gt9y6S-74" value="Read/Write&lt;br style=&quot;font-size: 16px;&quot;&gt;requests" style="text;html=1;align=center;verticalAlign=middle;resizable=0;points=[];autosize=1;strokeColor=none;fillColor=none;fontSize=16;" vertex="1" parent="1">
          <mxGeometry x="450" y="549.9999999999999" width="100" height="50" as="geometry" />
        </mxCell>
        <mxCell id="tqQFtVf9cBMd6XpxgD0x-9" value="Client requests" style="text;html=1;align=center;verticalAlign=middle;resizable=0;points=[];autosize=1;strokeColor=none;fillColor=none;fontSize=16;" vertex="1" parent="1">
          <mxGeometry x="-110" y="450" width="130" height="30" as="geometry" />
        </mxCell>
        <mxCell id="tqQFtVf9cBMd6XpxgD0x-13" value="Deploy&lt;br&gt;&amp;amp;&lt;br&gt;Manage" style="text;html=1;align=center;verticalAlign=middle;resizable=0;points=[];autosize=1;strokeColor=none;fillColor=none;fontSize=16;" vertex="1" parent="1">
          <mxGeometry x="-420" y="780" width="80" height="70" as="geometry" />
        </mxCell>
        <mxCell id="XumjTPw2hBYQ-sRrh7FU-34" value="" style="sketch=0;outlineConnect=0;fontColor=#232F3E;gradientColor=none;fillColor=#232F3D;strokeColor=none;dashed=0;verticalLabelPosition=bottom;verticalAlign=top;align=center;html=1;fontSize=12;fontStyle=0;aspect=fixed;pointerEvents=1;shape=mxgraph.aws4.user;fontFamily=Helvetica;" vertex="1" parent="1">
          <mxGeometry x="-840" y="540" width="80" height="80" as="geometry" />
        </mxCell>
        <mxCell id="tqQFtVf9cBMd6XpxgD0x-21" value="Monitoring" style="text;html=1;align=center;verticalAlign=middle;resizable=0;points=[];autosize=1;strokeColor=none;fillColor=none;fontSize=16;" vertex="1" parent="1">
          <mxGeometry x="200" y="960" width="100" height="30" as="geometry" />
        </mxCell>
        <mxCell id="wCM3qjM0v2rsUfWR87Rg-7" value="User app" style="text;html=1;align=center;verticalAlign=middle;resizable=0;points=[];autosize=1;strokeColor=none;fillColor=none;fontSize=16;" vertex="1" parent="1">
          <mxGeometry x="55" y="350" width="90" height="30" as="geometry" />
        </mxCell>
        <mxCell id="wCM3qjM0v2rsUfWR87Rg-8" value="User app" style="text;html=1;align=center;verticalAlign=middle;resizable=0;points=[];autosize=1;strokeColor=none;fillColor=none;fontSize=16;" vertex="1" parent="1">
          <mxGeometry x="-25" y="350" width="90" height="30" as="geometry" />
        </mxCell>
        <mxCell id="wCM3qjM0v2rsUfWR87Rg-9" value="User app" style="text;html=1;align=center;verticalAlign=middle;resizable=0;points=[];autosize=1;strokeColor=none;fillColor=none;fontSize=16;" vertex="1" parent="1">
          <mxGeometry x="-105" y="350" width="90" height="30" as="geometry" />
        </mxCell>
        <mxCell id="wCM3qjM0v2rsUfWR87Rg-10" value="" style="sketch=0;html=1;dashed=0;whitespace=wrap;fillColor=#2875E2;strokeColor=#ffffff;points=[[0.005,0.63,0],[0.1,0.2,0],[0.9,0.2,0],[0.5,0,0],[0.995,0.63,0],[0.72,0.99,0],[0.5,1,0],[0.28,0.99,0]];verticalLabelPosition=bottom;align=center;verticalAlign=top;shape=mxgraph.kubernetes.icon;prIcon=pod" vertex="1" parent="1">
          <mxGeometry x="-80" y="380" width="40" height="40" as="geometry" />
        </mxCell>
        <mxCell id="wCM3qjM0v2rsUfWR87Rg-11" value="" style="sketch=0;html=1;dashed=0;whitespace=wrap;fillColor=#2875E2;strokeColor=#ffffff;points=[[0.005,0.63,0],[0.1,0.2,0],[0.9,0.2,0],[0.5,0,0],[0.995,0.63,0],[0.72,0.99,0],[0.5,1,0],[0.28,0.99,0]];verticalLabelPosition=bottom;align=center;verticalAlign=top;shape=mxgraph.kubernetes.icon;prIcon=pod" vertex="1" parent="1">
          <mxGeometry y="380" width="40" height="40" as="geometry" />
        </mxCell>
        <mxCell id="wCM3qjM0v2rsUfWR87Rg-12" value="" style="sketch=0;html=1;dashed=0;whitespace=wrap;fillColor=#2875E2;strokeColor=#ffffff;points=[[0.005,0.63,0],[0.1,0.2,0],[0.9,0.2,0],[0.5,0,0],[0.995,0.63,0],[0.72,0.99,0],[0.5,1,0],[0.28,0.99,0]];verticalLabelPosition=bottom;align=center;verticalAlign=top;shape=mxgraph.kubernetes.icon;prIcon=pod" vertex="1" parent="1">
          <mxGeometry x="80" y="380" width="40" height="40" as="geometry" />
        </mxCell>
        <mxCell id="wCM3qjM0v2rsUfWR87Rg-15" value="Service for ScalarDB Cluster" style="text;html=1;align=center;verticalAlign=middle;resizable=0;points=[];autosize=1;strokeColor=none;fillColor=none;fontSize=16;" vertex="1" parent="1">
          <mxGeometry x="-215" y="610" width="230" height="30" as="geometry" />
        </mxCell>
        <mxCell id="wCM3qjM0v2rsUfWR87Rg-17" value="ScalarDB&lt;br style=&quot;font-size: 16px;&quot;&gt;Cluster" style="text;html=1;align=center;verticalAlign=middle;resizable=0;points=[];autosize=1;strokeColor=none;fillColor=none;fontSize=16;" vertex="1" parent="1">
          <mxGeometry x="255" y="535" width="90" height="50" as="geometry" />
        </mxCell>
        <mxCell id="wCM3qjM0v2rsUfWR87Rg-18" value="" style="sketch=0;html=1;dashed=0;whitespace=wrap;fillColor=#2875E2;strokeColor=#ffffff;points=[[0.005,0.63,0],[0.1,0.2,0],[0.9,0.2,0],[0.5,0,0],[0.995,0.63,0],[0.72,0.99,0],[0.5,1,0],[0.28,0.99,0]];verticalLabelPosition=bottom;align=center;verticalAlign=top;shape=mxgraph.kubernetes.icon;prIcon=pod" vertex="1" parent="1">
          <mxGeometry x="280" y="580" width="40" height="40" as="geometry" />
        </mxCell>
        <mxCell id="wCM3qjM0v2rsUfWR87Rg-20" value="Prometheus&lt;br style=&quot;font-size: 16px;&quot;&gt;Operator" style="text;html=1;align=center;verticalAlign=middle;resizable=0;points=[];autosize=1;strokeColor=none;fillColor=none;fontSize=16;" vertex="1" parent="1">
          <mxGeometry x="-235" y="730" width="110" height="50" as="geometry" />
        </mxCell>
        <mxCell id="wCM3qjM0v2rsUfWR87Rg-21" value="Prometheus" style="text;html=1;align=center;verticalAlign=middle;resizable=0;points=[];autosize=1;strokeColor=none;fillColor=none;fontSize=16;" vertex="1" parent="1">
          <mxGeometry x="-155" y="810" width="110" height="30" as="geometry" />
        </mxCell>
        <mxCell id="wCM3qjM0v2rsUfWR87Rg-22" value="Grafana" style="text;html=1;align=center;verticalAlign=middle;resizable=0;points=[];autosize=1;strokeColor=none;fillColor=none;fontSize=16;" vertex="1" parent="1">
          <mxGeometry x="180" y="750" width="80" height="30" as="geometry" />
        </mxCell>
        <mxCell id="wCM3qjM0v2rsUfWR87Rg-23" value="Scalar&lt;br&gt;Manager" style="text;html=1;align=center;verticalAlign=middle;resizable=0;points=[];autosize=1;strokeColor=none;fillColor=none;fontSize=16;" vertex="1" parent="1">
          <mxGeometry x="255" y="730" width="90" height="50" as="geometry" />
        </mxCell>
        <mxCell id="wCM3qjM0v2rsUfWR87Rg-24" value="Alertmanager" style="text;html=1;align=center;verticalAlign=middle;resizable=0;points=[];autosize=1;strokeColor=none;fillColor=none;fontSize=16;" vertex="1" parent="1">
          <mxGeometry x="-80" y="750" width="120" height="30" as="geometry" />
        </mxCell>
        <mxCell id="wCM3qjM0v2rsUfWR87Rg-25" value="Loki" style="text;html=1;align=center;verticalAlign=middle;resizable=0;points=[];autosize=1;strokeColor=none;fillColor=none;fontSize=16;" vertex="1" parent="1">
          <mxGeometry x="115" y="750" width="50" height="30" as="geometry" />
        </mxCell>
        <mxCell id="wCM3qjM0v2rsUfWR87Rg-26" value="Promtail" style="text;html=1;align=center;verticalAlign=middle;resizable=0;points=[];autosize=1;strokeColor=none;fillColor=none;fontSize=16;" vertex="1" parent="1">
          <mxGeometry x="20" y="810" width="80" height="30" as="geometry" />
        </mxCell>
        <mxCell id="wCM3qjM0v2rsUfWR87Rg-27" value="" style="sketch=0;html=1;dashed=0;whitespace=wrap;fillColor=#2875E2;strokeColor=#ffffff;points=[[0.005,0.63,0],[0.1,0.2,0],[0.9,0.2,0],[0.5,0,0],[0.995,0.63,0],[0.72,0.99,0],[0.5,1,0],[0.28,0.99,0]];verticalLabelPosition=bottom;align=center;verticalAlign=top;shape=mxgraph.kubernetes.icon;prIcon=pod" vertex="1" parent="1">
          <mxGeometry x="-200" y="780" width="40" height="40" as="geometry" />
        </mxCell>
        <mxCell id="wCM3qjM0v2rsUfWR87Rg-28" value="" style="sketch=0;html=1;dashed=0;whitespace=wrap;fillColor=#2875E2;strokeColor=#ffffff;points=[[0.005,0.63,0],[0.1,0.2,0],[0.9,0.2,0],[0.5,0,0],[0.995,0.63,0],[0.72,0.99,0],[0.5,1,0],[0.28,0.99,0]];verticalLabelPosition=bottom;align=center;verticalAlign=top;shape=mxgraph.kubernetes.icon;prIcon=pod" vertex="1" parent="1">
          <mxGeometry x="-120" y="780" width="40" height="40" as="geometry" />
        </mxCell>
        <mxCell id="wCM3qjM0v2rsUfWR87Rg-29" value="" style="sketch=0;html=1;dashed=0;whitespace=wrap;fillColor=#2875E2;strokeColor=#ffffff;points=[[0.005,0.63,0],[0.1,0.2,0],[0.9,0.2,0],[0.5,0,0],[0.995,0.63,0],[0.72,0.99,0],[0.5,1,0],[0.28,0.99,0]];verticalLabelPosition=bottom;align=center;verticalAlign=top;shape=mxgraph.kubernetes.icon;prIcon=pod" vertex="1" parent="1">
          <mxGeometry x="-40" y="780" width="40" height="40" as="geometry" />
        </mxCell>
        <mxCell id="wCM3qjM0v2rsUfWR87Rg-30" value="" style="sketch=0;html=1;dashed=0;whitespace=wrap;fillColor=#2875E2;strokeColor=#ffffff;points=[[0.005,0.63,0],[0.1,0.2,0],[0.9,0.2,0],[0.5,0,0],[0.995,0.63,0],[0.72,0.99,0],[0.5,1,0],[0.28,0.99,0]];verticalLabelPosition=bottom;align=center;verticalAlign=top;shape=mxgraph.kubernetes.icon;prIcon=pod" vertex="1" parent="1">
          <mxGeometry x="40" y="780" width="40" height="40" as="geometry" />
        </mxCell>
        <mxCell id="wCM3qjM0v2rsUfWR87Rg-31" value="" style="sketch=0;html=1;dashed=0;whitespace=wrap;fillColor=#2875E2;strokeColor=#ffffff;points=[[0.005,0.63,0],[0.1,0.2,0],[0.9,0.2,0],[0.5,0,0],[0.995,0.63,0],[0.72,0.99,0],[0.5,1,0],[0.28,0.99,0]];verticalLabelPosition=bottom;align=center;verticalAlign=top;shape=mxgraph.kubernetes.icon;prIcon=pod" vertex="1" parent="1">
          <mxGeometry x="120" y="780" width="40" height="40" as="geometry" />
        </mxCell>
        <mxCell id="wCM3qjM0v2rsUfWR87Rg-32" value="" style="sketch=0;html=1;dashed=0;whitespace=wrap;fillColor=#2875E2;strokeColor=#ffffff;points=[[0.005,0.63,0],[0.1,0.2,0],[0.9,0.2,0],[0.5,0,0],[0.995,0.63,0],[0.72,0.99,0],[0.5,1,0],[0.28,0.99,0]];verticalLabelPosition=bottom;align=center;verticalAlign=top;shape=mxgraph.kubernetes.icon;prIcon=pod" vertex="1" parent="1">
          <mxGeometry x="200" y="780" width="40" height="40" as="geometry" />
        </mxCell>
        <mxCell id="wCM3qjM0v2rsUfWR87Rg-33" value="" style="sketch=0;html=1;dashed=0;whitespace=wrap;fillColor=#2875E2;strokeColor=#ffffff;points=[[0.005,0.63,0],[0.1,0.2,0],[0.9,0.2,0],[0.5,0,0],[0.995,0.63,0],[0.72,0.99,0],[0.5,1,0],[0.28,0.99,0]];verticalLabelPosition=bottom;align=center;verticalAlign=top;shape=mxgraph.kubernetes.icon;prIcon=pod" vertex="1" parent="1">
          <mxGeometry x="280" y="780" width="40" height="40" as="geometry" />
        </mxCell>
        <mxCell id="kKvB7u8rc-VWdOC6brW8-1" value="Deploy&lt;br&gt;&amp;amp;&lt;br&gt;Manage" style="text;html=1;align=center;verticalAlign=middle;resizable=0;points=[];autosize=1;strokeColor=none;fillColor=none;fontSize=16;" vertex="1" parent="1">
          <mxGeometry x="-420" y="580" width="80" height="70" as="geometry" />
        </mxCell>
        <mxCell id="kKvB7u8rc-VWdOC6brW8-2" value="Deploy&lt;br&gt;&amp;amp;&lt;br&gt;Manage" style="text;html=1;align=center;verticalAlign=middle;resizable=0;points=[];autosize=1;strokeColor=none;fillColor=none;fontSize=16;" vertex="1" parent="1">
          <mxGeometry x="-420" y="380" width="80" height="70" as="geometry" />
        </mxCell>
        <mxCell id="25kCVbxW3HgF8WLqXU-x-1" value="" style="sketch=0;html=1;dashed=0;whitespace=wrap;fillColor=#2875E2;strokeColor=#ffffff;points=[[0.005,0.63,0],[0.1,0.2,0],[0.9,0.2,0],[0.5,0,0],[0.995,0.63,0],[0.72,0.99,0],[0.5,1,0],[0.28,0.99,0]];verticalLabelPosition=bottom;align=center;verticalAlign=top;shape=mxgraph.kubernetes.icon;prIcon=svc" vertex="1" parent="1">
          <mxGeometry x="-120" y="580" width="40" height="40" as="geometry" />
        </mxCell>
      </root>
    </mxGraphModel>
  </diagram>
</mxfile>
